<!-- Generated by IcoMoon.io -->
<svg version="1.1" xmlns="http://www.w3.org/2000/svg" width="32" height="32" viewBox="0 0 32 32">
<title>burger</title>
<path d="M2.286 18h27.429c1.262 0 2.286-0.892 2.286-2 0-1.104-1.024-2-2.286-2h-27.429c-1.262 0-2.286 0.896-2.286 2 0 1.108 1.024 2 2.286 2z"></path>
<path d="M2.286 27.333h27.429c1.262 0 2.286-0.892 2.286-2 0-1.104-1.024-2-2.286-2h-27.429c-1.262 0-2.286 0.896-2.286 2 0 1.108 1.024 2 2.286 2z"></path>
<path d="M2.286 8.667h27.429c1.262 0 2.286-0.892 2.286-2 0-1.104-1.024-2-2.286-2h-27.429c-1.262 0-2.286 0.896-2.286 2 0 1.108 1.024 2 2.286 2z"></path>
</svg>
