<!-- Generated by IcoMoon.io -->
<svg version="1.1" xmlns="http://www.w3.org/2000/svg" width="32" height="32" viewBox="0 0 32 32">
<title>close</title>
<path d="M1.9 31.109c0.558 0.592 1.288 0.891 2.017 0.891s1.458-0.299 2.011-0.891l10.072-10.792 10.072 10.792c0.553 0.592 1.282 0.891 2.011 0.891s1.458-0.299 2.017-0.891c1.111-1.196 1.111-3.125 0-4.316l-10.072-10.792 10.072-10.792c1.111-1.19 1.111-3.125 0-4.316s-2.917-1.19-4.028 0l-10.072 10.792-10.072-10.792c-1.111-1.19-2.917-1.19-4.028 0s-1.111 3.125 0 4.316l10.072 10.792-10.072 10.792c-1.111 1.19-1.111 3.119 0 4.316z"></path>
</svg>
